<svg xmlns="http://www.w3.org/2000/svg" width="46" height="46" viewBox="0 0 46 46"><path fill="none" stroke="#14171C" stroke-width="2.5" stroke-linejoin="round" stroke-miterlimit="10" d="M29.082 15.016l-6.858 5.571a.512.512 0 0 0-.188.397v10.484c0 .282.229.511.511.511h4.597a.511.511 0 0 0 .511-.511v-6.642c0-.282.229-.511.511-.511h4.087c.282 0 .511.229.511.511v6.642c0 .282.229.511.512.511h4.597a.511.511 0 0 0 .511-.511V20.983c0-.154-.069-.3-.188-.397l-6.857-5.571a1.789 1.789 0 0 0-2.257.001z"/><g stroke-width="2.5" stroke-linejoin="round" stroke-miterlimit="10"><path fill="none" stroke="#14171C" d="M45 6.429v33.429A5.143 5.143 0 0 1 39.857 45H10.286a5.144 5.144 0 0 1-5.143-5.143V6.429a5.144 5.144 0 0 1 5.143-5.143h29.572A5.143 5.143 0 0 1 45 6.429zM15.429 43.714V0"/><path fill="#FFF" stroke="#000" d="M0 34.714h9M0 11.571h9"/></g></svg>