<svg xmlns="http://www.w3.org/2000/svg" width="40" height="55.586" viewBox="277.64 393.822 40 55.586"><g fill="#231F20"><path d="M316.469 399.769h-.991c-.541-2.343-2.703-4.054-5.135-4.054h-7.478v-.721c0-.631-.541-1.171-1.172-1.171h-8.558c-.631 0-1.171.541-1.171 1.171v.721h-6.937c-2.522 0-4.594 1.711-5.135 4.054h-1.082c-.63 0-1.171.541-1.171 1.261v3.423c0 .63.541 1.171 1.171 1.171h.991l2.973 36.757c.18 1.893 1.351 3.514 2.973 3.964a3.577 3.577 0 0 0 3.514 2.793c1.622 0 3.063-1.081 3.514-2.612h10c1.172 1.712 3.153 2.883 5.406 2.883a6.652 6.652 0 0 0 6.666-6.667c0-1.892-.721-3.514-1.981-4.774l2.612-32.343h.991c.63 0 1.171-.541 1.171-1.171v-3.423c0-.722-.541-1.262-1.171-1.262zm-1.172 2.432v.991h-35.225v-.991h35.225zm-30.27-4.054h25.316c1.171 0 2.162.63 2.612 1.622h-30.541c.451-.992 1.442-1.622 2.613-1.622zm23.154 48.649c-1.712 0-3.153-.991-3.784-2.433-.181-.45-.36-.991-.36-1.622 0-2.252 1.892-4.144 4.145-4.144 2.252 0 4.144 1.892 4.144 4.144 0 .271 0 .541-.09.812-.362 1.891-2.074 3.243-4.055 3.243zm2.342-10.36c-.721-.271-1.531-.451-2.342-.451a6.652 6.652 0 0 0-6.667 6.667c0 .45.09.901.18 1.352h-9.099c-.541-1.262-1.892-2.162-3.333-2.162-1.351 0-2.613.811-3.243 1.981-.451-.27-.811-.9-.901-1.621l-2.883-36.577h30.811l-2.433 29.46-.09 1.351zm-21.171 7.837c.63 0 1.171.54 1.171 1.171s-.541 1.171-1.171 1.171c-.631 0-1.171-.54-1.171-1.171s.45-1.171 1.171-1.171z"/><path d="M308.181 440.129c-1.441 0-2.613 1.171-2.613 2.612s1.172 2.613 2.613 2.613 2.612-1.172 2.612-2.613-1.171-2.612-2.612-2.612zm0 3.424c-.451 0-.812-.361-.812-.812s.36-.811.812-.811c.45 0 .811.36.811.811s-.361.812-.811.812zM292.865 418.507l.991.45c.18.09.36.09.541 0 .18-.09.27-.18.36-.36l1.892-3.874a1.605 1.605 0 0 1 1.442-.901h.09c.54 0 1.081.36 1.351.811l1.982 3.514-1.982.09c-.63 0-1.171.541-1.171 1.261 0 .631.541 1.171 1.171 1.171l4.055-.09c.45 0 .811-.27.99-.63l1.893-3.333c.18-.271.18-.631.09-.901a1.403 1.403 0 0 0-.54-.721c-.541-.36-1.352-.09-1.622.45l-.901 1.532-1.981-3.423c-.721-1.171-1.892-1.982-3.333-2.072a4.102 4.102 0 0 0-3.875 2.252l-1.892 3.874c-.001.269.089.72.449.9zM305.657 420.759c-.18-.27-.63-.36-.9-.18l-.901.631a.496.496 0 0 0-.27.45c0 .181 0 .36.09.541l2.433 3.604c.36.54.36 1.261 0 1.802-.271.45-.812.721-1.352.721h-4.054l.9-1.622c.181-.27.181-.63.09-.9a1.203 1.203 0 0 0-.63-.721c-.541-.271-1.352-.09-1.622.54l-1.892 3.604c-.18.36-.18.812 0 1.172l1.981 3.333c.181.36.631.631 1.081.631.181 0 .451-.091.631-.181a1.4 1.4 0 0 0 .541-.721c.09-.271 0-.631-.091-.9l-.99-1.622h4.054c1.352 0 2.703-.721 3.424-1.892.9-1.352.811-3.063 0-4.415l-2.523-3.875zM296.288 428.327l-4.324.36c-.63.09-1.261-.271-1.531-.901a1.543 1.543 0 0 1 0-1.531l1.892-3.424.991 1.622c.36.541 1.081.721 1.711.36.541-.36.721-1.081.36-1.712l-2.162-3.423c-.18-.36-.63-.541-1.081-.541l-3.874.09c-.631 0-1.171.541-1.171 1.261 0 .63.541 1.171 1.261 1.171h1.892l-1.982 3.514c-.721 1.171-.721 2.703-.09 3.874a4.03 4.03 0 0 0 3.604 2.162h.271l4.324-.36c.18 0 .36-.09.451-.271.09-.18.18-.271.18-.45v-1.171c-.001-.359-.361-.63-.722-.63z"/></g></svg>