<svg xmlns="http://www.w3.org/2000/svg" width="50.686" height="48" viewBox="0 0 50.686 48"><g fill="none" stroke="#14171C" stroke-width="2.5" stroke-linejoin="round" stroke-miterlimit="10"><path d="M40.752 44.663A6.872 6.872 0 0 0 45.938 47a6.887 6.887 0 0 0 3.748-1.104 8.328 8.328 0 0 1-4.101-5.882 15.67 15.67 0 0 0 2.673-8.786c0-8.711-7.061-15.771-15.772-15.771s-15.771 7.06-15.771 15.771S23.774 47 32.485 47c3.035 0 5.865-.854 8.267-2.337zM12.868 29.375a14.405 14.405 0 0 1-3.68-1.604 6.296 6.296 0 0 1-4.744 2.143A6.27 6.27 0 0 1 1 28.902a7.607 7.607 0 0 0 3.759-5.388 14.356 14.356 0 0 1-2.445-8.057C2.314 7.466 8.78 1 16.771 1c6.65 0 12.249 4.482 13.932 10.606"/></g></svg>