<svg xmlns="http://www.w3.org/2000/svg" width="45.686" height="59.5" viewBox="0 0 45.686 59.5"><g fill="none" stroke="#14171C" stroke-width="2.5" stroke-linecap="round" stroke-linejoin="round" stroke-miterlimit="10"><path d="M10.151 9.514l8.053 2.86h9.641l6.78-5.085-2.86-2.013-4.45 1.271-.318-3.284-2.542-2.013-4.238 6.886-3.602-3.178zM18.204 15.658h9.641c3.178 0 3.708 1.377 5.296 2.118 1.589.742 6.887 3.814 7.417 4.979.53 1.166 3.496 2.967 3.18 7.734-.319 4.767.104 7.31-.213 9.11-.317 1.802-.53 7.31-.213 9.43.318 2.118 2.86 9.428-.953 9.215-3.813-.211-13.561-.951-18.856-.951-5.298 0-16.527.741-18.222.847-1.696.104-5.086 1.06-3.709-6.569 1.378-7.626.317-15.255.423-16.103.106-.847-.847-8.157 1.59-10.911 2.438-2.755 8.369-7.311 10.064-7.947 1.695-.634 4.555-.952 4.555-.952z"/><circle cx="22.441" cy="36.105" r="11.654"/><path d="M15.768 26.465v19.174M15.873 36.953l15.68-8.37M25.304 31.868l6.884 10.064M26.467 25.193c-3.92 1.166-6.567 2.86-6.78 5.085-.211 2.224 3.815 6.886 4.133 8.051.316 1.165 1.484 2.224-3.603 9.216"/></g></svg>