<svg xmlns="http://www.w3.org/2000/svg" width="66.579" height="70.501" viewBox="0 0 66.579 70.501"><g fill="none" stroke="#14171C" stroke-width="2.5" stroke-linecap="round" stroke-linejoin="round" stroke-miterlimit="10"><path d="M52.683 1.25c-7.505 2.362-25.126 9.782-25.126 9.782s-1.518.337-2.951 3.456c-1.433 3.121-3.625 8.432-4.047 9.444-.422 1.011-.506 2.782.337 3.961.844 1.181 1.686 2.615 1.686 2.615"/><path d="M26.46 26.462c-.085-1.688.084-3.288.761-4.554.673-1.266.673-2.444 3.794-3.457l2.613-.757c-.169 1.599-.169 4.636 1.517 6.321l-6.576 8.938c-1.981 1.981.169 4.047.422 4.385.253.337 2.444 1.687 4.383-.591 1.94-2.275 4.302-5.732 4.302-5.732s1.854-1.771 4.636-2.952c2.782-1.18 9.252-3.624 10.539-4.554 1.289-.926 4.976-3.539 4.554-9.442l7.926-3.119M40.541 29.074v6.155"/><path d="M41.722 28.401v6.827c0 1.475 1.478 2.476 2.782 2.362 1.31-.113 2.444-1.347 2.444-2.95v-8.35M28.315 37.422l-17.58 17.58 3.498 3.498H1.25V45.77l3.457 3.204 24.452-24.453 3.203 3.204"/><path d="M24.858 40.879v19.308h-4.637l9.063 9.064 9.021-9.022h-4.932V36.747"/><path d="M33.628 41.048l14.037 14.038-3.245 3.245h12.73v-12.73l-3.373 3.373-16.904-16.906"/></g></svg>