<svg xmlns="http://www.w3.org/2000/svg" width="45" height="45" viewBox="0 0 36 36"><g stroke-width="2" stroke-linejoin="round" stroke-miterlimit="10"><path fill="none" stroke="#14171C" d="M35 5v26a4 4 0 0 1-4 4H8a4 4 0 0 1-4-4V5a4 4 0 0 1 4-4h23a4 4 0 0 1 4 4zM12 34V0"/><path fill="#FFF" stroke="#000" d="M0 27h7M0 9h7"/></g><g fill="none" stroke="#14171C" stroke-width="2" stroke-linejoin="round" stroke-miterlimit="10"><path d="M19.227 22.693a4.354 4.354 0 0 1 2.463-3.207M25.351 19.486c.47.218.893.515 1.254.876a4.322 4.322 0 0 1 1.21 2.331"/><circle cx="23.52" cy="17.5" r="6.74"/><ellipse cx="23.52" cy="17.104" rx="2.775" ry="3.171"/></g></svg>