<svg xmlns="http://www.w3.org/2000/svg" width="59.999" height="60" viewBox="0 0 59.999 60"><path d="M58.889 46.666c-2.122 0-3.224.678-4.197 1.275-.859.529-1.538.946-3.031.946s-2.173-.417-3.033-.946c-.554-.34-1.157-.702-1.961-.955V5.556a3.337 3.337 0 0 1 3.334-3.333h1.111a3.336 3.336 0 0 1 3.332 3.333v5.555c0 .614.498 1.111 1.111 1.111h3.334a1.11 1.11 0 0 0 0-2.222h-2.223V5.556A5.562 5.562 0 0 0 51.111 0H50a5.563 5.563 0 0 0-5.557 5.556v15.555H18.889V5.556a3.336 3.336 0 0 1 3.333-3.333h1.111a3.337 3.337 0 0 1 3.334 3.333v5.555a1.11 1.11 0 0 0 1.11 1.111h3.333a1.11 1.11 0 1 0 0-2.222h-2.222V5.556A5.56 5.56 0 0 0 23.333 0h-1.111a5.562 5.562 0 0 0-5.555 5.556v41.188a8.079 8.079 0 0 0-1.117-.078c-2.118 0-3.22.678-4.192 1.275-.858.529-1.536.946-3.027.946-1.49 0-2.167-.417-3.026-.946-.972-.598-2.073-1.275-4.192-1.275a1.11 1.11 0 0 0-.002 2.221c1.491 0 2.168.42 3.027.945.971.6 2.072 1.277 4.191 1.277s3.221-.678 4.192-1.277c.859-.525 1.536-.945 3.027-.945 1.49 0 2.168.42 3.026.945.973.6 2.073 1.277 4.192 1.277 2.12 0 3.222-.678 4.194-1.277.858-.525 1.536-.945 3.026-.945s2.169.42 3.027.945c.97.6 2.071 1.277 4.191 1.277 2.119 0 3.222-.678 4.194-1.277.858-.525 1.537-.945 3.028-.945 1.493 0 2.173.42 3.032.948.975.597 2.074 1.274 4.197 1.274 2.121 0 3.224-.678 4.196-1.274.859-.528 1.539-.948 3.032-.948a1.11 1.11 0 0 0 1.11-1.109 1.103 1.103 0 0 0-1.104-1.112zM44.443 23.333v13.333H18.889V23.333h25.554zm-4.206 24.608c-.859.529-1.537.946-3.029.946-1.49 0-2.168-.417-3.026-.946-.972-.598-2.073-1.275-4.192-1.275-2.118 0-3.22.678-4.192 1.275-.857.529-1.537.946-3.028.946-1.49 0-2.168-.417-3.026-.946a15.903 15.903 0 0 0-.854-.494v-8.559h25.555v7.777h-.013c-2.121.001-3.223.679-4.195 1.276zM58.889 55.556c-2.122 0-3.224.676-4.197 1.273-.859.529-1.538.948-3.031.948s-2.173-.419-3.033-.948c-.973-.598-2.074-1.273-4.196-1.273-2.12 0-3.222.676-4.193 1.273-.859.529-1.537.948-3.029.948-1.49 0-2.168-.419-3.026-.946-.972-.598-2.073-1.275-4.192-1.275-2.118 0-3.22.676-4.192 1.275-.857.527-1.537.946-3.028.946-1.49 0-2.168-.419-3.026-.946-.972-.6-2.073-1.275-4.192-1.275-2.118 0-3.22.678-4.192 1.275-.858.527-1.536.946-3.027.946-1.49 0-2.167-.419-3.026-.946-.972-.598-2.073-1.275-4.192-1.275a1.111 1.111 0 0 0-.006 2.221c1.491 0 2.168.416 3.027.945C5.109 59.32 6.211 60 8.33 60s3.221-.68 4.192-1.277c.859-.529 1.536-.945 3.027-.945 1.49 0 2.168.416 3.026.945.974.597 2.074 1.277 4.194 1.277s3.222-.68 4.194-1.277c.858-.529 1.536-.945 3.026-.945s2.169.416 3.027.945c.97.597 2.072 1.277 4.192 1.277 2.119 0 3.222-.68 4.194-1.277.858-.529 1.537-.945 3.028-.945 1.493 0 2.173.416 3.032.945.976.597 2.075 1.277 4.198 1.277 2.121 0 3.224-.68 4.196-1.277.859-.529 1.539-.945 3.032-.945a1.11 1.11 0 0 0 .001-2.222z"/></svg>